<?xml version="1.0" encoding="UTF-8" standalone="no"?><!DOCTYPE svg PUBLIC "-//W3C//DTD SVG 1.1//EN" "http://www.w3.org/Graphics/SVG/1.1/DTD/svg11.dtd"><svg width="100%" height="100%" viewBox="0 0 5290 1363" version="1.1" xmlns="http://www.w3.org/2000/svg" xmlns:xlink="http://www.w3.org/1999/xlink" xml:space="preserve" xmlns:serif="http://www.serif.com/" style="fill-rule:evenodd;clip-rule:evenodd;stroke-linejoin:round;stroke-miterlimit:2;"><rect id="Artboard9" x="0" y="0" width="5289.692" height="1362.114" style="fill:none;"/><g><g><path d="M2717.549,1054.063c-51.035,-8.988 -100.688,-25.606 -147.101,-49.475c-20.876,-10.736 -41.097,-22.94 -60.493,-36.576c15.585,-17.545 29.617,-36.153 42.054,-55.614c19.216,13.356 39.354,25.096 60.197,35.175c46.293,22.384 96.062,36.575 146.922,42.087c29.343,3.18 59.048,3.471 88.658,0.781c54.906,-4.989 109.483,-20.231 160.81,-46.32c14.577,-7.409 19.607,-11.618 29.634,-17.186c5.617,-3.119 24.732,-13.492 30.526,-16.222c45.661,-21.515 93.354,-35.775 141.582,-43.084c36.02,-5.459 72.338,-7.04 108.332,-4.87c23.234,1.4 46.332,4.364 69.127,8.855c-2.165,23.451 -2.927,47.061 -2.26,70.693c0.719,25.467 3.099,50.961 7.174,76.313c4.373,27.208 10.698,54.253 19.017,80.926c-25.058,-11.106 -51.473,-18.768 -78.464,-22.828c-71.853,-10.809 -147.79,3.908 -213.084,47.144c-31.516,20.869 -57.883,46.616 -78.764,75.583c-22.227,-9.395 -45.052,-17.209 -68.289,-23.405c27.253,-42.7 63.665,-80.512 108.592,-110.262c73.265,-48.515 157.435,-67.812 238.732,-60.692c-2.949,-24.205 -4.532,-48.485 -4.774,-72.724c-75.523,-4.744 -152.738,9.605 -223.943,44.612c-1.775,0.873 -12.72,7.269 -14.44,8.251c-8.032,4.587 -19.213,11.745 -33.753,19.273c-50.847,26.326 -104.515,43.389 -158.863,51.625c-30.078,4.558 -60.364,6.413 -90.495,5.637c-25.733,-0.662 -51.352,-3.243 -76.633,-7.695Zm1200.163,-940.941c3.913,53.68 -0.62,107.514 -13.182,159.464c-6.027,24.922 -13.901,49.409 -23.579,73.238c-11.313,27.856 -25.089,54.812 -41.255,80.507c-28.491,45.285 -64.406,86.655 -107.344,122.14c-14.001,11.571 -20.644,16.199 -36.125,26.45c-1.44,0.954 -11.699,8.638 -11,8.324c-3.881,3.115 -13.475,11.245 -19.243,16.654c-53.13,49.821 -91.917,110.758 -115.127,176.73c-7.824,22.239 -13.878,45.05 -18.114,68.201c-4.508,24.638 -6.958,49.661 -7.292,74.787c-0.375,28.198 1.915,56.526 6.95,84.588c8.46,47.151 24.672,93.55 49.017,137.314l60.398,-39.994c-23.042,-42.931 -36.864,-88.759 -41.972,-134.994c-3.146,-28.475 -2.987,-57.104 0.358,-85.307c2.892,-24.382 8.167,-48.444 15.747,-71.812c25.18,-77.627 75.803,-147.586 149.068,-196.1c47.032,-31.143 98.557,-50.247 150.931,-58.051c-3.163,23.657 -4.697,47.552 -4.567,71.504c-37.457,7.513 -74.106,22.251 -107.903,44.631c-65.294,43.236 -108.486,107.404 -126.583,177.775c-6.798,26.435 -10.055,53.745 -9.612,81.151c0.729,45.08 11.469,90.417 32.926,132.536c3.383,6.641 7.033,13.202 10.952,19.67c2.131,3.516 4.341,7.005 6.631,10.463c2.29,3.459 4.639,6.855 7.045,10.189c4.425,6.133 9.04,12.054 13.834,17.761l-177.028,117.224c-4.522,-5.929 -8.937,-11.981 -13.238,-18.156c-2.131,-3.516 -4.341,-7.005 -6.631,-10.463c-2.29,-3.459 -4.639,-6.855 -7.045,-10.189c-4.005,-6.371 -7.854,-12.797 -11.548,-19.275c-23.46,-41.149 -40.644,-84.375 -51.792,-128.492c-7.244,-28.666 -11.939,-57.709 -14.152,-86.804c-1.891,-24.866 -1.97,-49.77 -0.276,-74.508c1.634,-23.869 4.918,-47.584 9.815,-70.963c4.763,-22.74 11.051,-45.163 18.831,-67.1c12.627,-35.605 29.184,-69.93 49.525,-102.261c21.268,-33.805 46.674,-65.429 76.049,-94.051c9.976,-9.72 15.045,-14.417 21.458,-19.875c2.174,-1.85 14.637,-11.296 17.022,-12.876c14.544,-9.631 28.34,-19.97 41.373,-30.941c42.853,-36.076 77.454,-78.991 103.256,-126.054c14.263,-26.016 25.837,-53.3 34.63,-81.397c15.648,-50.004 22.488,-102.582 19.996,-155.173c-1.096,-23.133 -3.997,-46.268 -8.748,-69.188c22.757,-3.959 45.345,-9.721 67.555,-17.328c4.962,23.207 8.28,46.613 9.988,70.049Z" style="fill:none;stroke:#353130;stroke-width:6.25px;"/></g><g><path d="M1489.715,1054.063c-51.035,-8.988 -100.688,-25.606 -147.101,-49.475c-20.876,-10.736 -41.097,-22.94 -60.493,-36.576c15.585,-17.545 29.617,-36.153 42.054,-55.614c19.216,13.356 39.354,25.096 60.197,35.175c46.293,22.384 96.062,36.575 146.922,42.087c29.343,3.18 59.048,3.471 88.658,0.781c54.906,-4.989 109.483,-20.231 160.81,-46.32c14.577,-7.409 19.607,-11.618 29.634,-17.186c5.617,-3.119 24.732,-13.492 30.526,-16.222c45.661,-21.515 93.354,-35.775 141.582,-43.084c36.02,-5.459 72.338,-7.04 108.332,-4.87c23.234,1.4 46.332,4.364 69.127,8.855c-2.165,23.451 -2.927,47.061 -2.26,70.693c0.719,25.467 3.099,50.961 7.174,76.313c4.373,27.208 10.698,54.253 19.017,80.926c-25.058,-11.106 -51.473,-18.768 -78.464,-22.828c-71.853,-10.809 -147.79,3.908 -213.084,47.144c-31.516,20.869 -57.883,46.616 -78.764,75.583c-22.227,-9.395 -45.052,-17.209 -68.289,-23.405c27.253,-42.7 63.665,-80.512 108.592,-110.262c73.265,-48.515 157.435,-67.812 238.732,-60.692c-2.949,-24.205 -4.532,-48.485 -4.774,-72.724c-75.523,-4.744 -152.738,9.605 -223.943,44.612c-1.775,0.873 -12.72,7.269 -14.44,8.251c-8.032,4.587 -19.213,11.745 -33.753,19.273c-50.847,26.326 -104.515,43.389 -158.863,51.625c-30.078,4.558 -60.364,6.413 -90.495,5.637c-25.733,-0.662 -51.352,-3.243 -76.633,-7.695Zm1200.163,-940.941c3.913,53.68 -0.62,107.514 -13.182,159.464c-6.027,24.922 -13.901,49.409 -23.579,73.238c-11.313,27.856 -25.089,54.812 -41.255,80.507c-28.491,45.285 -64.406,86.655 -107.344,122.14c-14.001,11.571 -20.644,16.199 -36.125,26.45c-1.44,0.954 -11.699,8.638 -11,8.324c-3.881,3.115 -13.475,11.245 -19.243,16.654c-53.13,49.821 -91.917,110.758 -115.127,176.73c-7.824,22.239 -13.878,45.05 -18.114,68.201c-4.508,24.638 -6.958,49.661 -7.292,74.787c-0.375,28.198 1.915,56.526 6.95,84.588c8.46,47.151 24.672,93.55 49.017,137.314l60.398,-39.994c-23.042,-42.931 -36.864,-88.759 -41.972,-134.994c-3.146,-28.475 -2.987,-57.104 0.358,-85.307c2.892,-24.382 8.167,-48.444 15.747,-71.812c25.18,-77.627 75.803,-147.586 149.068,-196.1c47.032,-31.143 98.557,-50.247 150.931,-58.051c-3.163,23.657 -4.697,47.552 -4.567,71.504c-37.457,7.513 -74.106,22.251 -107.903,44.631c-65.294,43.236 -108.486,107.404 -126.583,177.775c-6.798,26.435 -10.055,53.745 -9.612,81.151c0.729,45.08 11.469,90.417 32.926,132.536c3.383,6.641 7.033,13.202 10.952,19.67c2.131,3.516 4.341,7.005 6.631,10.463c2.29,3.459 4.639,6.855 7.045,10.189c4.425,6.133 9.04,12.054 13.834,17.761l-177.028,117.224c-4.522,-5.929 -8.937,-11.981 -13.238,-18.156c-2.131,-3.516 -4.341,-7.005 -6.631,-10.463c-2.29,-3.459 -4.639,-6.855 -7.045,-10.189c-4.005,-6.371 -7.854,-12.797 -11.548,-19.275c-23.46,-41.149 -40.644,-84.375 -51.792,-128.492c-7.244,-28.666 -11.939,-57.709 -14.152,-86.804c-1.891,-24.866 -1.97,-49.77 -0.276,-74.508c1.634,-23.869 4.918,-47.584 9.815,-70.963c4.763,-22.74 11.051,-45.163 18.831,-67.1c12.627,-35.605 29.184,-69.93 49.525,-102.261c21.268,-33.805 46.674,-65.429 76.049,-94.051c9.976,-9.72 15.045,-14.417 21.458,-19.875c2.174,-1.85 14.637,-11.296 17.022,-12.876c14.544,-9.631 28.34,-19.97 41.373,-30.941c42.853,-36.076 77.454,-78.991 103.256,-126.054c14.263,-26.016 25.837,-53.3 34.63,-81.397c15.648,-50.004 22.488,-102.582 19.996,-155.173c-1.096,-23.133 -3.997,-46.268 -8.748,-69.188c22.757,-3.959 45.345,-9.721 67.555,-17.328c4.962,23.207 8.28,46.613 9.988,70.049Z" style="fill:none;stroke:#353130;stroke-width:6.25px;"/></g><g><path d="M253.138,1054.063c-51.035,-8.988 -100.688,-25.606 -147.101,-49.475c-20.876,-10.736 -41.097,-22.94 -60.493,-36.576c15.585,-17.545 29.617,-36.153 42.054,-55.614c19.216,13.356 39.354,25.096 60.197,35.175c46.293,22.384 96.062,36.575 146.922,42.087c29.343,3.18 59.048,3.471 88.658,0.781c54.906,-4.989 109.483,-20.231 160.81,-46.32c14.577,-7.409 19.607,-11.618 29.634,-17.186c5.617,-3.119 24.732,-13.492 30.526,-16.222c45.661,-21.515 93.354,-35.775 141.582,-43.084c36.02,-5.459 72.338,-7.04 108.332,-4.87c23.234,1.4 46.332,4.364 69.127,8.855c-2.165,23.451 -2.927,47.061 -2.26,70.693c0.719,25.467 3.099,50.961 7.174,76.313c4.373,27.208 10.698,54.253 19.017,80.926c-25.058,-11.106 -51.473,-18.768 -78.464,-22.828c-71.853,-10.809 -147.79,3.908 -213.084,47.144c-31.516,20.869 -57.883,46.616 -78.764,75.583c-22.227,-9.395 -45.052,-17.209 -68.289,-23.405c27.253,-42.7 63.665,-80.512 108.592,-110.262c73.265,-48.515 157.435,-67.812 238.732,-60.692c-2.949,-24.205 -4.532,-48.485 -4.774,-72.724c-75.523,-4.744 -152.738,9.605 -223.943,44.612c-1.775,0.873 -12.72,7.269 -14.44,8.251c-8.032,4.587 -19.213,11.745 -33.753,19.273c-50.847,26.326 -104.515,43.389 -158.863,51.625c-30.078,4.558 -60.364,6.413 -90.495,5.637c-25.733,-0.662 -51.352,-3.243 -76.633,-7.695Zm1200.163,-940.941c3.913,53.68 -0.62,107.514 -13.182,159.464c-6.027,24.922 -13.901,49.409 -23.579,73.238c-11.313,27.856 -25.089,54.812 -41.255,80.507c-28.491,45.285 -64.406,86.655 -107.344,122.14c-14.001,11.571 -20.644,16.199 -36.125,26.45c-1.44,0.954 -11.699,8.638 -11,8.324c-3.881,3.115 -13.475,11.245 -19.243,16.654c-53.13,49.821 -91.917,110.758 -115.127,176.73c-7.824,22.239 -13.878,45.05 -18.114,68.201c-4.508,24.638 -6.958,49.661 -7.292,74.787c-0.375,28.198 1.915,56.526 6.95,84.588c8.46,47.151 24.672,93.55 49.017,137.314l60.398,-39.994c-23.042,-42.931 -36.864,-88.759 -41.972,-134.994c-3.146,-28.475 -2.987,-57.104 0.358,-85.307c2.892,-24.382 8.167,-48.444 15.747,-71.812c25.18,-77.627 75.803,-147.586 149.068,-196.1c47.032,-31.143 98.557,-50.247 150.931,-58.051c-3.163,23.657 -4.697,47.552 -4.567,71.504c-37.457,7.513 -74.106,22.251 -107.903,44.631c-65.294,43.236 -108.486,107.404 -126.583,177.775c-6.798,26.435 -10.055,53.745 -9.612,81.151c0.729,45.08 11.469,90.417 32.926,132.536c3.383,6.641 7.033,13.202 10.952,19.67c2.131,3.516 4.341,7.005 6.631,10.463c2.29,3.459 4.639,6.855 7.045,10.189c4.425,6.133 9.04,12.054 13.834,17.761l-177.028,117.224c-4.522,-5.929 -8.937,-11.981 -13.238,-18.156c-2.131,-3.516 -4.341,-7.005 -6.631,-10.463c-2.29,-3.459 -4.639,-6.855 -7.045,-10.189c-4.005,-6.371 -7.854,-12.797 -11.548,-19.275c-23.46,-41.149 -40.644,-84.375 -51.792,-128.492c-7.244,-28.666 -11.939,-57.709 -14.152,-86.804c-1.891,-24.866 -1.97,-49.77 -0.276,-74.508c1.634,-23.869 4.918,-47.584 9.815,-70.963c4.763,-22.74 11.051,-45.163 18.831,-67.1c12.627,-35.605 29.184,-69.93 49.525,-102.261c21.268,-33.805 46.674,-65.429 76.049,-94.051c9.976,-9.72 15.045,-14.417 21.458,-19.875c2.174,-1.85 14.637,-11.296 17.022,-12.876c14.544,-9.631 28.34,-19.97 41.373,-30.941c42.853,-36.076 77.454,-78.991 103.256,-126.054c14.263,-26.016 25.837,-53.3 34.63,-81.397c15.648,-50.004 22.488,-102.582 19.996,-155.173c-1.096,-23.133 -3.997,-46.268 -8.748,-69.188c22.757,-3.959 45.345,-9.721 67.555,-17.328c4.962,23.207 8.28,46.613 9.988,70.049Z" style="fill:none;stroke:#353130;stroke-width:6.25px;"/></g><g><path d="M3982.804,1065.291c-51.035,-8.988 -100.688,-25.606 -147.101,-49.475c-20.876,-10.736 -41.097,-22.94 -60.493,-36.576c15.585,-17.545 29.617,-36.153 42.054,-55.614c19.216,13.356 39.354,25.096 60.197,35.175c46.293,22.384 96.062,36.575 146.922,42.087c29.343,3.18 59.048,3.471 88.658,0.781c54.906,-4.989 109.483,-20.231 160.81,-46.32c14.577,-7.409 19.607,-11.618 29.634,-17.186c5.617,-3.119 24.732,-13.492 30.526,-16.222c45.661,-21.515 93.354,-35.775 141.582,-43.084c36.02,-5.459 72.338,-7.04 108.332,-4.87c23.234,1.4 46.332,4.364 69.127,8.855c-2.165,23.451 -2.927,47.061 -2.26,70.693c0.719,25.467 3.099,50.961 7.174,76.313c4.373,27.208 10.698,54.253 19.017,80.926c-25.058,-11.106 -51.473,-18.768 -78.464,-22.828c-71.853,-10.809 -147.79,3.908 -213.084,47.144c-31.516,20.869 -57.883,46.616 -78.764,75.583c-22.227,-9.395 -45.052,-17.209 -68.289,-23.405c27.253,-42.7 63.665,-80.512 108.592,-110.262c73.265,-48.515 157.435,-67.812 238.732,-60.692c-2.949,-24.205 -4.532,-48.485 -4.774,-72.724c-75.523,-4.744 -152.738,9.605 -223.943,44.612c-1.775,0.873 -12.72,7.269 -14.44,8.251c-8.032,4.587 -19.213,11.745 -33.753,19.273c-50.847,26.326 -104.515,43.389 -158.863,51.625c-30.078,4.558 -60.364,6.413 -90.495,5.637c-25.733,-0.662 -51.352,-3.243 -76.633,-7.695Zm1200.163,-940.941c3.913,53.68 -0.62,107.514 -13.182,159.464c-6.027,24.922 -13.901,49.409 -23.579,73.238c-11.313,27.856 -25.089,54.812 -41.255,80.507c-28.491,45.285 -64.406,86.655 -107.344,122.14c-14.001,11.571 -20.644,16.199 -36.125,26.45c-1.44,0.954 -11.699,8.638 -11,8.324c-3.881,3.115 -13.475,11.245 -19.243,16.654c-53.13,49.821 -91.917,110.758 -115.127,176.73c-7.824,22.239 -13.878,45.05 -18.114,68.201c-4.508,24.638 -6.958,49.661 -7.292,74.787c-0.375,28.198 1.915,56.526 6.95,84.588c8.46,47.151 24.672,93.55 49.017,137.314l60.398,-39.994c-23.042,-42.931 -36.864,-88.759 -41.972,-134.994c-3.146,-28.475 -2.987,-57.104 0.358,-85.307c2.892,-24.382 8.167,-48.444 15.747,-71.812c25.18,-77.627 75.803,-147.586 149.068,-196.1c47.032,-31.143 98.557,-50.247 150.931,-58.051c-3.163,23.657 -4.697,47.552 -4.567,71.504c-37.457,7.513 -74.106,22.251 -107.903,44.631c-65.294,43.236 -108.486,107.404 -126.583,177.775c-6.798,26.435 -10.055,53.745 -9.612,81.151c0.729,45.08 11.469,90.417 32.926,132.536c3.383,6.641 7.033,13.202 10.952,19.67c2.131,3.516 4.341,7.005 6.631,10.463c2.29,3.459 4.639,6.855 7.045,10.189c4.425,6.133 9.04,12.054 13.834,17.761l-177.028,117.224c-4.522,-5.929 -8.937,-11.981 -13.238,-18.156c-2.131,-3.516 -4.341,-7.005 -6.631,-10.463c-2.29,-3.459 -4.639,-6.855 -7.045,-10.189c-4.005,-6.371 -7.854,-12.797 -11.548,-19.275c-23.46,-41.149 -40.644,-84.375 -51.792,-128.492c-7.244,-28.666 -11.939,-57.709 -14.152,-86.804c-1.891,-24.866 -1.97,-49.77 -0.276,-74.508c1.634,-23.869 4.918,-47.584 9.815,-70.963c4.763,-22.74 11.051,-45.163 18.831,-67.1c12.627,-35.605 29.184,-69.93 49.525,-102.261c21.268,-33.805 46.674,-65.429 76.049,-94.051c9.976,-9.72 15.045,-14.417 21.458,-19.875c2.174,-1.85 14.637,-11.296 17.022,-12.876c14.544,-9.631 28.34,-19.97 41.373,-30.941c42.853,-36.076 77.454,-78.991 103.256,-126.054c14.263,-26.016 25.837,-53.3 34.63,-81.397c15.648,-50.004 22.488,-102.582 19.996,-155.173c-1.096,-23.133 -3.997,-46.268 -8.748,-69.188c22.757,-3.959 45.345,-9.721 67.555,-17.328c4.962,23.207 8.28,46.613 9.988,70.049Z" style="fill:none;stroke:#353130;stroke-width:6.25px;"/></g></g></svg>