<svg xmlns="http://www.w3.org/2000/svg" viewBox="0 0 140.28 59.1"><g id="Layer_2" data-name="Layer 2"><g id="Layer_1-2" data-name="Layer 1"><g id="OBJECTS"><path d="M49.77,54.79,45.2,54a1.88,1.88,0,0,1-1.32-.6,3.49,3.49,0,0,1-.31-.75,2.73,2.73,0,0,0-2.13-1.53,9.93,9.93,0,0,0-2.72.06,28.65,28.65,0,0,1-8.62-.36,35.28,35.28,0,0,0,11.12,1,2,2,0,0,1,1.7.39,1.34,1.34,0,0,1-.47,1.88,3.88,3.88,0,0,1-2.14.39,5.12,5.12,0,0,0,1.5.74,1.59,1.59,0,0,1,1.08,1.18c0,.67-.61,1.17-1.22,1.47-2.31,1.11-6.59,1.93-8.45-.44-.7-.89-4.57-.24-5.55-.15a16.14,16.14,0,0,1-5.41.12,6.2,6.2,0,0,1-2-.52c-.55-.45-.78-1.92-.94-2.57-.4-1.75-.46-3.56-.92-5.3a6.8,6.8,0,0,0-.36,3.74c.19,1.26.57,2.48.84,3.72.41,1.91-1.82,2.38-3.24,2.47a7.24,7.24,0,0,1-2.54,0c-1-.42-1.42-2-1.5-3-.11-1.29.11-2.61-.1-3.89a1.48,1.48,0,0,0-.32-.82,1.87,1.87,0,0,0-1.38-.41,19.7,19.7,0,0,1-7.93-2C1,48.49,0,47.8,0,46.79a2.82,2.82,0,0,1,.57-1.48,21.66,21.66,0,0,1,1.46-2C4,41,6.09,39.46,6.47,36.14a32.58,32.58,0,0,0-.17-6.08c-.24-3.58-.38-8.49,2.32-11.17,2.91-2.89,6.21-3.6,9.91-5.06a73.34,73.34,0,0,0,11-5.57c.41-.25,2.09.2,2.59.26L35,8.87c1.61.22,3.22.47,4.83.71a47.53,47.53,0,0,0,8.59.65c7-.26,13.23-4.12,20.19-4,.39,0,.79,0,1.19,0,2,.15,4.09.6,6.09.21a33.59,33.59,0,0,0,3.23-1A22.56,22.56,0,0,1,87,4.89c2.24.14,4.75,0,6.86.74A38.72,38.72,0,0,0,101,7.36a19.11,19.11,0,0,0,5.17.24c2.3-.27,4.74.2,7.07.23a12.67,12.67,0,0,1-2.76-1.24,3.15,3.15,0,0,1-1.35-1.33A2.43,2.43,0,0,1,109.41,3a6.72,6.72,0,0,1,1.7-1.62c.55.42-.21,1.28-.1,2a1.29,1.29,0,0,0,.65.8,5,5,0,0,0,3.38.46c1.15-.17,2.26-.54,3.41-.67,1.4-.15,2.82,0,4.2-.2,1.6-.29,3.06-1.17,4.68-1.32a35.29,35.29,0,0,1,3.84.21c2.6,0,5-1.34,7.24-2.64A4.42,4.42,0,0,1,136,3.93a38.87,38.87,0,0,1-4.52,1.84c-1,.44-2.11,1.24-2,2.34a8.3,8.3,0,0,1,5.48-.85,24.75,24.75,0,0,1,5.39,1.68c-.22.24-.44.47-.67.7a21.57,21.57,0,0,1-5.73,4.16,3.91,3.91,0,0,0-1.67-1.9c2.5,1.41,1.19,7.9,1.12,10.17a5.41,5.41,0,0,0,.25,2.3,5.53,5.53,0,0,0,1.47,1.8L137,28a2.54,2.54,0,0,1,.82,1.11,2,2,0,0,1-.06,1.06,5.64,5.64,0,0,1-5.25,4.07,6.16,6.16,0,0,0,1.87.58,5.64,5.64,0,0,1-3.12,1.3,3.84,3.84,0,0,1-3.1-1.17c-.37-.4-.64-.9-1-1.27-1.55-1.41-4.66-.92-6.55-.76a7.34,7.34,0,0,1-4-.5,3.06,3.06,0,0,0,2.12,1.42c-.86-.13-3.06,1.43-3.76,1.9-1.37.9-2.66,1.89-4,2.88a44.37,44.37,0,0,0-5.52,4.72c-1.33,1.42-3.3,3.08-4.16,4.85a1.32,1.32,0,0,1,1.31.65,5.38,5.38,0,0,0,.93,1.23c.25.2.57.34.71.62a1.28,1.28,0,0,1,0,.7,11.52,11.52,0,0,1-.81,2.82,1.7,1.7,0,0,1-.63.83,1.87,1.87,0,0,1-1,.14L91,54.67c0,1.27-.18,2.79-1.32,3.36a3.25,3.25,0,0,1-1.64.23c-2.54-.11-5.06-.6-7.6-.68-4.75-.15-9.63,1.1-14.19-.25a1.38,1.38,0,0,1-.51-.23c-.61-.48-.24-1.44.16-2.1l1.77-2.85c-1.2,1.19-2.1,3.63-3.75,4.22-2.3.82-5.87-.21-8.19-.59Z"/></g></g></g></svg>