<svg xmlns="http://www.w3.org/2000/svg" viewBox="0 0 67.52 119.47"><g id="Layer_2" data-name="Layer 2"><g id="Layer_1-2" data-name="Layer 1"><g id="OBJECTS"><path d="M67.1,89C66.4,87.19,64.75,86,64,84.13a19.09,19.09,0,0,1-1-5.57c-.3-3.8-.06-7.6-.12-11.41-.05-2.57.76-5,.11-7.56a20.59,20.59,0,0,0-10.63-12.7,31.1,31.1,0,0,1-4.15-2.11c-1-.68-1.8-1.54-2.77-2.23-2-1.42-4.47-2.06-6.33-3.64-2.33-2-3.54-5.32-6.38-6.48a10.43,10.43,0,0,1,3.22-4c1.16-.7,2.82-.4,3.85-1.31A3.58,3.58,0,0,0,40.73,25a12.46,12.46,0,0,0,.33-3.49,4.13,4.13,0,0,0-1.59-3c-1.14-.8-2.62-.66-3.79-1.33a65.82,65.82,0,0,1-6-4.24l3.62,1a1.19,1.19,0,0,0,.59.07c1.26-.27,1.88-4.27,1.79-5.2a11.72,11.72,0,0,0-3.07-6.28,5,5,0,0,0-3.25-2,9.66,9.66,0,0,1,1.47,8.74A2.54,2.54,0,0,1,30,10.52a2.68,2.68,0,0,1-1.79.34c-2.87-.17-5.71-.67-8.58-.88-2.37-.17-5.24.67-6.55-2A5.5,5.5,0,0,1,13,3.74,14.18,14.18,0,0,1,15.32,0,8.28,8.28,0,0,0,10.1,2.94,10.88,10.88,0,0,0,7.77,8.53a5.53,5.53,0,0,0,0,1.86c.54,2.72,3.89,4.18,4.46,6.89-1.74-.78-3.59-1.58-5.49-1.36-2.42.29-4.36,2.16-6.71,2.79-.22.83.49,1.59,1.14,2.16,2,1.72,4.35,3.52,7,3.19,1.85-.24,3.63-1.55,5.43-1,2.1.59-5,14.93-5.15,16.33C8.1,41.67,9,44,9,46.36c0,3.24-1.49,6.31-1.8,9.54a25.84,25.84,0,0,0,1.22,8.83l3.27,12.68c.89,3.44,3.13,8.22,2.44,11.74a7.51,7.51,0,0,0-.3,2.1A8.35,8.35,0,0,0,15,94.13c1,2.07,1,4.47.9,6.76s-.58-1.13-.67,1.2a15.36,15.36,0,0,1-.64,4.48,9.68,9.68,0,0,0-.84,2.83,5.75,5.75,0,0,1-.08,2.27c-.31.68-1.08,1-1.67,1.48A7.34,7.34,0,0,0,10,117a.77.77,0,0,0,0,.63.75.75,0,0,0,.6.22,38.94,38.94,0,0,0,7.63-.39,2.59,2.59,0,0,0,1.8-.81c.79-1.11-.42-2.75.17-4a13.76,13.76,0,0,1,.86-1.15c.62-1,.23-2.26,0-3.39a25,25,0,0,1-.14-8.14c.44-4.28,1.52-2.76,2.29-7a13.84,13.84,0,0,0,.33-2.7c0-.87-.2-1.73-.24-2.59-.06-1.1.1-2.19.07-3.29A18.38,18.38,0,0,0,23,81.77c-.23-1.36-.47-2.72-.7-4.08.29,1,1,2.23,1.3,3,.53,1.41,1.09,2.81,1.56,4.23.76,2.31,2.82,3.59,5.15,4.26a25.38,25.38,0,0,0,6.57.66c0-1.53,0-3.07-.07-4.6.36,5.31,2.35,10.39,3.1,15.66a17.66,17.66,0,0,1,0,4.36c-.22,2.79.32,5.61-.28,8.42-.37,1.7-1,3.4-.78,5.12,1.89.4,6.37,1.32,7.92-.32,1.39-1.47.31-5.33.19-7.11a2.52,2.52,0,0,1,.29-1.72c.23-.3.59-.48.81-.78a2.29,2.29,0,0,0,.26-1.51,29.4,29.4,0,0,0-1-4.53,32.64,32.64,0,0,1-.82-5.1c-.11-1.48.34,2.82.31,1.33,0-1.29-.06-2.59-.14-3.89-.15-2.39.17-4.65-.22-7.07-.22-1.35-.57-2.67-.79-4a19.74,19.74,0,0,1,0-6.09c.53,3.15,1.07,6.3,1.6,9.44a41,41,0,0,0,4.67-4.74,9.09,9.09,0,0,1-4.45,5.7,22,22,0,0,0,.36,3.24,1.45,1.45,0,0,0,.38.85,5.26,5.26,0,0,0,.67.34c.53.33.59,1,.69,1.67s.45,1.34,1.08,1.33c.24-.75-.49-1.53-.37-2.31a2.3,2.3,0,0,1,.37-.85,16.37,16.37,0,0,0,2.32-8.29c0-1-.07-1.94-.08-2.9a29.36,29.36,0,0,0,3.34-5.46c-.72,1.56-.68,3.43-.89,5.1a54.67,54.67,0,0,0-.36,6.4,128.49,128.49,0,0,1-.23,12.87c-.23,2.18-1.12-1.45-1.53.71l-1.71,9a14.92,14.92,0,0,1-.92,3.5,16.5,16.5,0,0,0-1.38,3.66,1.09,1.09,0,0,0,.17,1,1.2,1.2,0,0,0,1,.15l5.68-1a2.62,2.62,0,0,0,1.13-.38,2.3,2.3,0,0,0,.54-2.3,4.52,4.52,0,0,1-.11-2.44c.37-.94,1.45-1.42,1.89-2.32.52-1.07,0-2.31-.36-3.44-1.44-4.51.26-3.63,1.84-8.08a6.16,6.16,0,0,0,.49-3.73c-.37-1.78-.69-3.58-1-5.37a31,31,0,0,1-.55-3.73,30.25,30.25,0,0,1,.7-7.4l.66-3.77c0,.57.1,1.14.19,1.71a22.61,22.61,0,0,1,.54,3.54c0,2.54-1.39,5.14-.49,7.52,1,2.75,4.62,3.72,6,6.32A10.71,10.71,0,0,0,67.1,89Z"/></g></g></g></svg>