<svg xmlns="http://www.w3.org/2000/svg" viewBox="0 0 158.25 104.1"><g id="Layer_2" data-name="Layer 2"><g id="Layer_1-2" data-name="Layer 1"><g id="OBJECTS"><path d="M154.39,84c-.21-1.7-.91-3.79-.84-5.48.32-7.8-2-15.84-3.79-23.37a27.6,27.6,0,0,1-1-3.65,40.68,40.68,0,0,1,.24-5.83c.18-3.83.28-6.79-1.13-10.44-1.2-3.11-2.81-6.22-2.75-9.64,0-.38,0-.76.08-1.14q3.53,8.69,7.68,17.09a9.91,9.91,0,0,1,1.33,4c.06,1.61-.68,3.13-.91,4.73a8,8,0,0,0,5,8.39c-1.64-2-2.11-4.67-2.28-7.23s-.11-5.2-.91-7.64c-1.24-3.74-4.39-6.71-5.15-10.58-.42-2.13-.06-4.35-.38-6.5a10.59,10.59,0,0,0-4.16-6.86c-.37-2.36-1.86-3.09-4.46-3.67-3.59-.81-6.83-2.63-10.27-3.86a24.64,24.64,0,0,0-9.85-1.3A133.39,133.39,0,0,1,89.74,9.53a37.85,37.85,0,0,0-9.41-.86c-2.38.21-4.73.93-7.11.74-3.13-.25-6-2.06-9.17-2a16.2,16.2,0,0,0-3.51.65c-4,1.07-7.8,2.56-11.92,2.1-3.07-.34-6.22,0-9.31-.26C35.59,9.66,32,8.82,28.25,8.3A3.76,3.76,0,0,1,27.14,8c-.95-.45-1.37-1.54-2-2.41A5.88,5.88,0,0,0,19.26,3.2l-.05,2.12C19.06,3.36,16,2,16.37,0c-.84,1.23-.72,2.86-.54,4.35a4.65,4.65,0,0,1,0,1.86c-.59,2-3.08,2.29-4.09,4-1.65,2.87-2.65,6.05-4.12,9C5.9,22.62,3.79,24.63,1,27.09a2.46,2.46,0,0,0-1,1.46,2.31,2.31,0,0,0,.42,1.3,8.8,8.8,0,0,0,3,3.73c2.19,1.25,4.86.45,7.11-.18A51.5,51.5,0,0,0,17,31.66a3.94,3.94,0,0,1,1.13-.37,3.21,3.21,0,0,1,1.15.17c3.89,1,8.41,1.65,12.1,3.26,2.2,1,5.81,3.74,6.17,6.24h.22c0,.66.87.39.85.85a25.11,25.11,0,0,0,7.49,6.62,11.26,11.26,0,0,0,3.25,6c1.47,1.49,3.51,2.56,4.41,4.5,1.11,2.41.71,5.6,4.34,4.73-.1-2.3-.29-4.61-.44-6.91a39,39,0,0,1,1.79,11.45c0,2.8-1.86,6-1.42,8.66a6.28,6.28,0,0,0,.48,1.38,21.49,21.49,0,0,1,1.27,10.5c-.17,1.62-.2,3.18-.3,4.78-.11,1.93-1.34,3.72-2.33,5.32-.45.72-2.19,2.64-1.53,3.42a20.69,20.69,0,0,0,3.11.55,12.5,12.5,0,0,0,3-.65,2.05,2.05,0,0,0,1.26-1.2,8.93,8.93,0,0,0,.17-.9c.52-2.3,3.67-2.57,3.7-5.32A11,11,0,0,0,66,91.22a30.07,30.07,0,0,1-1-13.11,91.24,91.24,0,0,1,2.88-12.92A16.5,16.5,0,0,1,70,60c1.3-1.84,3.4-3.19,4.11-5.33.22-.66,7.31,2.59,7.93,3.06a21.69,21.69,0,0,0,7.68,3.48,36.25,36.25,0,0,0,10.92,1.26c3.05-.11,6.21-1.74,9.25-1.39,2.34.27,5.88,2.59,4,5.28a1,1,0,0,0,1.54-.08c.19-.31.19-.7.37-1,.41-.73,1.46-.69,2.29-.54L125.05,66a1.2,1.2,0,0,1,.69.27c.4.39.15,1.08.33,1.61a1,1,0,0,0,1.91-.19c.07-.51-.26-1.06-.08-1.54a1.53,1.53,0,0,1,.65-.66l3.57-2.39,8.51,10.63c2.16,2.69,1.8,5.31,2.36,8.56a23.89,23.89,0,0,1,.24,7.73c-.39,2.46-1.82,4.89-1.85,7.37a.31.31,0,0,0,.05.21c.06.08.17.08.28.08q2.43,0,4.86-.15a1,1,0,0,0,.44-.1c.46-.24.34-.91.33-1.43a5.68,5.68,0,0,1,1.34-3c1.38-2.13,0-2.93-.37-5-.2-1.28-.49-2.55-.7-3.83-.16-1,.24-3-.08-3.74A30.92,30.92,0,0,1,149.88,91c0,1.42.44,2.87.36,4.25a13.73,13.73,0,0,1-1.89,5.18,5.76,5.76,0,0,0-.89,3.38.54.54,0,0,0,.09.22.47.47,0,0,0,.39.09l5.87-.52a.81.81,0,0,0,.57-.19,1,1,0,0,0,.12-.73,5.28,5.28,0,0,1,.84-2.75,8.53,8.53,0,0,0,.75-1.86c.73-2.74-.08-5.43-.79-8.33A50.93,50.93,0,0,1,154.39,84Z"/></g></g></g></svg>