<?xml version="1.0" encoding="utf-8"?>
<!-- Generator: Adobe Illustrator 27.0.0, SVG Export Plug-In . SVG Version: 6.00 Build 0)  -->
<svg version="1.1" id="Layer_1" xmlns="http://www.w3.org/2000/svg" xmlns:xlink="http://www.w3.org/1999/xlink" x="0px" y="0px"
	 viewBox="0 0 352.6 177.2" style="enable-background:new 0 0 352.6 177.2;" xml:space="preserve">
<style type="text/css">
	.st0{fill:#231F20;}
	.st1{fill:#ED1C24;}
</style>
<g>
	<g>
		<path class="st0" d="M126.7,96.6l-2.2,2.2h-18.2V78.4h18.2l2.2,2.2V96.6L126.7,96.6z M121.6,93.7V83.5h-10.2v10.2H121.6
			L121.6,93.7z"/>
		<path class="st0" d="M134,98.8h-5.1V78.4h5.1V98.8z"/>
		<path class="st0" d="M141.3,92.2v6.6h-5.1V78.4h18.2l2.2,2.2v9.5l-2.2,2.2C154.4,92.2,141.3,92.2,141.3,92.2z M151.5,83.5h-10.2
			v3.7h10.2V83.5z"/>
		<path class="st0" d="M163.9,92.2v6.6h-5.1V78.4H177l2.2,2.2v9.5l-2.2,2.2C177,92.2,163.9,92.2,163.9,92.2z M174.1,83.5h-10.2v3.7
			h10.2V83.5z"/>
		<path class="st0" d="M186.5,91.1v2.5h15.3v5.1h-18.2l-2.2-2.2v-5.8l2.2-2.2l-2.2-2.2v-5.8l2.2-2.2h18.2v5.1h-15.3V86h9.5v5.1
			H186.5L186.5,91.1z"/>
		<path class="st0" d="M209.1,92.2v6.6H204V78.4h18.2l2.2,2.2v9.5l-2.2,2.2C222.3,92.2,209.1,92.2,209.1,92.2z M219.3,83.5h-10.2
			v3.7h10.2V83.5z M217.9,98.8l-2.9-2.9l4.4-2.9l5.8,5.8H217.9L217.9,98.8z"/>
		<path class="st0" d="M239,78.4h5.1v15.3h12.4v5.1H239V78.4L239,78.4z"/>
		<path class="st0" d="M263.8,93.7v5.1h-5.1V80.6l2.2-2.2h16l2.2,2.2v18.2H274v-5.1L263.8,93.7L263.8,93.7z M274,88.6v-5.1h-10.2
			v5.1H274z"/>
		<path class="st0" d="M299.6,78.4l2.2,2.2v5.8l-2.2,2.2l2.2,2.2v5.8l-2.2,2.2h-18.2V78.4H299.6L299.6,78.4z M286.4,86h10.2v-2.6
			h-10.2V86z M286.4,91.1v2.6h10.2v-2.6H286.4z"/>
	</g>
	<polygon class="st1" points="96.5,71.1 91.4,68.1 91.3,68.1 86.3,65.2 86.3,65.2 81.2,62.2 76.1,59.3 70.9,62.2 70.9,62.3 
		65.8,65.2 65.8,65.2 65.8,65.2 60.8,68.1 60.7,68.1 55.7,71 55.6,71.1 50.8,73.8 50.8,103.3 50.9,103.4 55.8,106.2 55.8,77.1 
		60.8,74.2 60.8,74.2 65.9,71.3 65.9,71.3 71,68.3 71,68.3 76.1,65.4 81.1,68.3 81.1,68.3 86.1,71.2 91.2,74.2 96.3,77.1 
		96.3,100.2 91.2,103.2 91,103.3 86.2,106.1 86,106.2 81,109.1 81,109.1 76.1,111.9 71.2,109.1 71,109 65.9,106.1 65.9,82.8 
		70.8,80 71,79.9 75.9,77.1 76,77.2 81,80.1 86.1,83.1 86.1,94.5 86,94.5 86,94.5 81,97.4 76.2,100.1 76.2,88.9 81.2,86 81.4,85.9 
		81.2,85.8 76.1,82.8 76.1,82.8 76,82.8 70.9,85.8 70.8,85.8 70.8,103.4 76.1,106.4 81.1,103.5 81.1,103.5 86.2,100.6 86.3,100.6 
		91.4,97.6 91.4,79.9 86.3,77 86.3,76.9 81.2,74 81.1,74 76.1,71.1 76,71 70.9,74 70.8,74 65.8,76.9 65.8,76.9 60.7,79.8 60.7,80.1 
		60.7,85.6 60.7,85.9 60.8,91.7 60.8,91.8 60.8,97.6 60.8,103.3 60.8,108.9 60.8,109.1 65.8,112 66.1,112.1 66.1,112.2 70.9,114.9 
		76,117.9 76.1,117.9 81.1,115 81.1,115 86.1,112.2 86.3,112 91,109.3 91.3,109.1 96.1,106.4 96.5,106.1 101.2,103.4 101.5,103.2 
		101.5,73.9 	"/>
</g>
</svg>
