<?xml version="1.0" encoding="UTF-8" standalone="no"?><!DOCTYPE svg PUBLIC "-//W3C//DTD SVG 1.1//EN" "http://www.w3.org/Graphics/SVG/1.1/DTD/svg11.dtd"><svg width="100%" height="100%" viewBox="0 0 2048 1011" version="1.1" xmlns="http://www.w3.org/2000/svg" xmlns:xlink="http://www.w3.org/1999/xlink" xml:space="preserve" xmlns:serif="http://www.serif.com/" style="fill-rule:evenodd;clip-rule:evenodd;stroke-linejoin:round;stroke-miterlimit:2;"><rect id="Artboard7" x="0" y="0" width="2047.796" height="1010.332" style="fill:none;"/><g><path d="M329.376,305.321c-36.642,-34.772 -68.056,-75.002 -92.932,-119.382c-11.189,-19.962 -21.056,-40.763 -29.482,-62.285c22.11,-5.872 43.53,-13.444 64.112,-22.568c8.43,21.198 18.479,41.578 29.996,60.987c25.578,43.108 58.392,81.428 96.763,113.281c22.137,18.377 46.124,34.601 71.639,48.35c47.311,25.495 99.873,42.48 155.632,48.9c15.836,1.823 22.189,1.11 33.335,1.981c6.245,0.488 27.363,2.344 33.541,3.244c48.692,7.088 95.13,21.166 138.262,41.182c32.214,14.949 62.583,33.211 90.67,54.346c18.13,13.643 35.309,28.482 51.419,44.402c-14.381,17.896 -27.707,36.674 -39.884,56.241c-13.122,21.086 -24.908,43.088 -35.241,65.886c-11.089,24.467 -20.504,49.853 -28.098,76.009c-14.389,-22.513 -31.735,-42.957 -51.488,-60.784c-52.583,-47.457 -122.223,-76.364 -198.562,-76.364c-36.848,0 -72.135,6.735 -104.696,19.04c-13.009,-19.599 -27.355,-38.234 -42.907,-55.776c45.131,-20.038 95.077,-31.174 147.604,-31.174c85.659,0 164.455,29.615 226.7,79.157c10.63,-21.26 22.411,-41.846 35.26,-61.677c-58.83,-44.502 -129.311,-74.397 -206.025,-84.267c-1.913,-0.246 -14.25,-0.938 -16.177,-1.066c-8.997,-0.595 -21.937,-0.795 -37.806,-2.501c-55.496,-5.969 -108.299,-20.985 -156.904,-43.54c-26.9,-12.483 -52.513,-27.276 -76.586,-44.123c-20.558,-14.388 -39.993,-30.273 -58.144,-47.498Zm1481.876,-118.844c-25.71,45.735 -58.368,87.051 -96.538,122.513c-18.311,17.012 -37.891,32.677 -58.581,46.836c-24.187,16.552 -49.892,31.047 -76.86,43.231c-47.53,21.473 -98.985,35.768 -152.982,41.5c-17.607,1.869 -25.498,2.056 -43.597,2.056c-1.684,0 -14.157,0.725 -13.42,0.846c-4.831,0.444 -17.004,1.887 -24.603,3.179c-69.996,11.899 -134.318,40.551 -188.688,81.68c-18.328,13.864 -35.526,29.147 -51.428,45.683c-16.925,17.599 -32.383,36.618 -46.177,56.86c-15.481,22.717 -28.866,46.974 -39.876,72.491c-18.5,42.877 -30.296,89.313 -34.063,137.986l70.614,0c4.378,-47.294 17.808,-91.981 38.54,-132.309c12.768,-24.837 28.306,-48.021 46.204,-69.142c15.473,-18.26 32.71,-34.979 51.448,-49.892c62.245,-49.541 141.041,-79.157 226.7,-79.157c54.988,0 107.147,12.204 153.916,34.049c-15.303,17.525 -29.411,36.121 -42.195,55.659c-34.488,-14.053 -72.207,-21.798 -111.721,-21.798c-76.339,0 -145.979,28.908 -198.562,76.364c-19.753,17.827 -37.098,38.271 -51.488,60.784c-23.67,37.032 -39.341,79.661 -44.57,125.442c-0.824,7.219 -1.389,14.516 -1.685,21.881c-0.161,4.005 -0.242,8.029 -0.242,12.073c0,4.044 0.081,8.069 0.242,12.073c0.296,7.366 0.86,14.663 1.685,21.881l-206.974,-0c-0.485,-7.253 -0.815,-14.548 -0.988,-21.881c0.161,-4.005 0.242,-8.029 0.242,-12.073c0,-4.044 -0.081,-8.069 -0.242,-12.073c0.173,-7.334 0.504,-14.628 0.988,-21.881c3.079,-46.072 12.376,-90.452 27.059,-132.309c9.541,-27.198 21.355,-53.33 35.215,-78.168c11.846,-21.228 25.185,-41.512 39.876,-60.707c14.175,-18.52 29.607,-36.028 46.17,-52.395c16.11,-15.919 33.289,-30.759 51.419,-44.402c29.426,-22.142 61.357,-41.131 95.289,-56.461c35.48,-16.029 73.149,-28.059 112.429,-35.512c13.339,-2.531 19.987,-3.62 28.137,-4.605c2.763,-0.334 17.976,-1.304 20.765,-1.304c17.004,0 33.782,-0.978 50.28,-2.881c54.246,-6.258 105.466,-22.516 151.766,-46.881c25.595,-13.469 49.686,-29.415 71.954,-47.52c39.631,-32.22 73.487,-71.273 99.766,-115.358c11.559,-19.392 21.653,-39.757 30.127,-60.942c20.627,9.03 42.087,16.504 64.232,22.275c-8.457,21.533 -18.357,42.342 -29.582,62.31Z" style="fill:#fff;"/></g></svg>